<?xml version="1.0" encoding="utf-8"?>
<!-- Generator: Adobe Illustrator 25.4.1, SVG Export Plug-In . SVG Version: 6.00 Build 0)  -->
<svg version="1.1" id="Layer_1" xmlns="http://www.w3.org/2000/svg" xmlns:xlink="http://www.w3.org/1999/xlink" x="0px" y="0px"
	 viewBox="0 0 288 288" style="enable-background:new 0 0 288 288;" xml:space="preserve">
<style type="text/css">
	.st0{fill:none;stroke:#FFFFFF;stroke-width:9.7778;}
</style>
<desc>Created with Sketch.</desc>
<g id="ICONS-_x2F_-Forecast-_x2F_-Color-_x2F_-13---Mostly-Cloudy-with-Showers-LK">
	<g id="Mostly-Cloudy-w-Showers" transform="translate(12.000000, 4.000000)">
		<path id="Path" class="st0" d="M87.4,255.9l26.8-45.9"/>
		<path id="Path_00000084526856996417773520000012856474368040226721_" class="st0" d="M158.5,255.9l26.8-45.9"/>
		<path id="Path_00000013903243224188144150000010682948724918240904_" class="st0" d="M109.5,279.1l40.3-69.1"/>
		<path id="Path_00000016771140159115503500000012642590343202159489_" class="st0" d="M88,0v34.2"/>
		<path id="Path_00000150812259867610387240000004459158820653323421_" class="st0" d="M34.2,87.7H0"/>
		<path id="Path_00000089557672290253368770000014539503360550626225_" class="st0" d="M49.9,49.6L25.7,25.4"/>
		<path id="Path_00000048491255474452880010000006249364857925930942_" class="st0" d="M116.2,60.4c-10-10.3-24.8-14.3-38.7-10.4
			S53.1,65.1,50,79.1c-3.2,14,1.6,28.6,12.4,38.1"/>
		<path id="Path_00000138569730430160744580000015329156362309384325_" class="st0" d="M264,134.1c0-14.9-5.9-29.2-16.5-39.8
			c-10.5-10.5-24.8-16.5-39.8-16.5h-9.5c-18-21.1-46.9-29.4-73.3-20.8s-45,32.2-47.1,59.9H66c-20.3,0-36.7,16.4-36.7,36.7
			s16.4,36.7,36.7,36.7h141.8C238.9,190.3,264,165.1,264,134.1z"/>
	</g>
</g>
</svg>
