<?xml version="1.0" encoding="utf-8"?>
<!-- Generator: Adobe Illustrator 25.4.1, SVG Export Plug-In . SVG Version: 6.00 Build 0)  -->
<svg version="1.1" id="Layer_1" xmlns="http://www.w3.org/2000/svg" xmlns:xlink="http://www.w3.org/1999/xlink" x="0px" y="0px"
	 viewBox="0 0 286 288" style="enable-background:new 0 0 286 288;" xml:space="preserve">
<style type="text/css">
	.st0{fill:none;stroke:#FFFFFF;stroke-width:10.7643;}
	.st1{fill:none;stroke:#FFFFFF;stroke-width:10.7643;stroke-linejoin:bevel;}
</style>
<desc>Created with Sketch.</desc>
<g id="ICONS-_x2F_-Forecast-_x2F_-Color-_x2F_-36---Intermittent-Clouds-Night-LK">
	<g id="Intermittent-Clouds_Night" transform="translate(6.000000, 17.000000)">
		<path id="Path" class="st0" d="M183.6,56.3h5c0.2-11.4,7.6-21.3,18.3-25s22.6-0.1,29.7,8.8h9.1c11.9,0,21.5,9.6,21.5,21.5l0,0
			c0,11.9-9.6,21.5-21.5,21.5h-62.1c-7.4,0-13.5-6-13.5-13.5S176.1,56.3,183.6,56.3z"/>
		<path id="Path_00000147924344109934415340000006016955219334262201_" class="st1" d="M117.8,244.6c57.7,22.8,123.4,1.1,156.1-51.7
			c-50.1,11.5-102-9.2-130.6-51.9s-27.8-98.6,2-140.5c-37.5,5.6-70.5,27.6-90.1,60s-23.7,72-11.1,107.7"/>
		<path id="Path_00000055677672239325755670000001424724830277015440_" class="st0" d="M33.1,174.7h4.7c11.3-14,30.2-19.5,47.3-13.7
			s28.8,21.6,29.3,39.6h6.9c11.8,0.6,21,10.3,21,22.1s-9.3,21.5-21,22.1H33.1c-18.6-1-33.1-16.4-33.1-35S14.6,175.8,33.1,174.7
			L33.1,174.7z"/>
	</g>
</g>
</svg>
