<?xml version="1.0" encoding="utf-8"?>
<!-- Generator: Adobe Illustrator 25.4.1, SVG Export Plug-In . SVG Version: 6.00 Build 0)  -->
<svg version="1.1" id="Layer_1" xmlns="http://www.w3.org/2000/svg" xmlns:xlink="http://www.w3.org/1999/xlink" x="0px" y="0px"
	 viewBox="0 0 288 288" style="enable-background:new 0 0 288 288;" xml:space="preserve">
<style type="text/css">
	.st0{fill:none;stroke:#FFFFFF;stroke-width:9.5326;}
</style>
<desc>Created with Sketch.</desc>
<g id="ICONS-_x2F_-Forecast-_x2F_-Color-_x2F_-04---Intermitent-Clouds-LK">
	<g id="Intermittent-Clouds" transform="translate(0.000000, 1.000000)">
		<path id="Path" class="st0" d="M143,0v47.7"/>
		<path id="Path_00000058585270335710492960000014228199668207257772_" class="st0" d="M143,238.3V286"/>
		<path id="Path_00000012430266356724125960000009718328824984085683_" class="st0" d="M0,143h47.7"/>
		<path id="Path_00000160890550230428018050000013463747057927848342_" class="st0" d="M210.4,75.6l33.7-33.7"/>
		<path id="Path_00000176764778991764702710000016710549952974088127_" class="st0" d="M244.1,244.1l-33.7-33.7"/>
		<path id="Path_00000078733486643382299200000004406138650844680576_" class="st0" d="M75.6,75.6L41.9,41.9"/>
		<path id="Path_00000047056368326984557140000001526316851161051820_" class="st0" d="M211.6,110c-15-31.1-49-48.2-82.9-41.8
			c-33.9,6.5-59.3,34.9-61.8,69.3s18.4,66.3,51,77.6s68.8-0.6,88.2-29.2"/>
		<path id="Path_00000099652767252851796610000002282036515476643969_" class="st0" d="M250.2,123.9H246
			c-10-12.4-26.7-17.3-41.9-12.2c-15.1,5.1-25.5,19.1-25.9,35h-6.1c-10.4,0.5-18.6,9.1-18.6,19.6c0,10.4,8.2,19.1,18.6,19.6h78
			c11.5,0.6,22.4-5.1,28.3-15c5.9-9.8,5.9-22.2,0-32C272.6,129.1,261.7,123.3,250.2,123.9L250.2,123.9z"/>
		<path id="Path_00000178179329794935656020000012214975254431559841_" class="st0" d="M78.6,233.5h-4.4c0-13.2-10.7-23.8-23.8-23.8
			c-7.4,0-14.3,3.6-18.7,9.5h-7.8c-10.5,0-19.1,8.5-19.1,19.1l0,0c0,10.5,8.5,19.1,19.1,19.1h54.8c6.6,0,11.9-5.3,11.9-11.9
			C90.6,238.9,85.2,233.5,78.6,233.5L78.6,233.5z"/>
	</g>
</g>
</svg>
